<svg xmlns="http://www.w3.org/2000/svg" height="24px" viewBox="0 -960 960 960" width="24px" fill="#9C92AF"><path d="M480-300q75 0 127.5-52.5T660-480q0-75-52.5-127.5T480-660q-75 0-127.5 52.5T300-480q0 75 52.5 127.5T480-300Zm-28.5-151.5Q440-463 440-480t11.5-28.5Q463-520 480-520t28.5 11.5Q520-497 520-480t-11.5 28.5Q497-440 480-440t-28.5-11.5ZM480-71.87q-84.91 0-159.34-32.12-74.44-32.12-129.5-87.17-55.05-55.06-87.17-129.5Q71.87-395.09 71.87-480t32.12-159.34q32.12-74.44 87.17-129.5 55.06-55.05 129.5-87.17 74.43-32.12 159.34-32.12t159.34 32.12q74.44 32.12 129.5 87.17 55.05 55.06 87.17 129.5 32.12 74.43 32.12 159.34t-32.12 159.34q-32.12 74.44-87.17 129.5-55.06 55.05-129.5 87.17Q564.91-71.87 480-71.87Z"/></svg>